<?xml version="1.0" standalone="no"?><!DOCTYPE svg PUBLIC "-//W3C//DTD SVG 1.1//EN" "http://www.w3.org/Graphics/SVG/1.1/DTD/svg11.dtd"><svg t="1730034893837" class="icon" viewBox="0 0 1024 1024" version="1.1" xmlns="http://www.w3.org/2000/svg" p-id="2088" xmlns:xlink="http://www.w3.org/1999/xlink" width="200" height="200"><path d="M768 64A192 192 0 0 1 960 256v512a192 192 0 0 1-192 192H256A192 192 0 0 1 64 768V256A192 192 0 0 1 256 64z m0 42.666667H256A149.333333 149.333333 0 0 0 106.666667 256v512A149.333333 149.333333 0 0 0 256 917.333333h512a149.333333 149.333333 0 0 0 149.333333-149.333333V256A149.333333 149.333333 0 0 0 768 106.666667z m-67.797333 210.517333l3.498666 0.170667c4.394667 0.469333 7.552 1.92 9.386667 4.266666 2.346667 2.986667 3.541333 7.594667 3.541333 13.866667 0 6.570667-1.152 11.008-3.498666 13.397333-2.346667 2.346667-6.656 3.498667-12.928 3.498667h-189.610667l-16.896 106.538667h124.842667l6.997333 0.128c6.656 0.298667 12.501333 1.024 17.408 2.218666 6.570667 1.578667 11.818667 4.266667 15.701333 8.234667a32.213333 32.213333 0 0 1 8.234667 15.701333c1.578667 6.570667 2.346667 14.848 2.346667 24.874667v166.613333h50.218666l3.541334 0.170667c4.352 0.512 7.466667 2.005333 9.386666 4.522667 2.346667 3.114667 3.498667 7.808 3.498667 14.08 0 6.869333-1.152 11.52-3.498667 13.866666-2.346667 2.346667-6.656 3.498667-12.928 3.498667H304.554667l-3.498667-0.128c-4.394667-0.426667-7.509333-1.493333-9.386667-3.413333-2.389333-2.304-3.541333-6.954667-3.541333-13.824 0-6.272 1.152-10.965333 3.498667-14.08 2.389333-3.114667 6.656-4.693333 12.928-4.693334h117.333333l28.629333-181.162666H340.224l-3.498667-0.170667c-4.352-0.512-7.424-2.005333-9.173333-4.522667a21.76 21.76 0 0 1-3.285333-12.672c0-5.333333 1.109333-9.856 3.285333-13.610666 2.176-3.754667 6.4-5.632 12.672-5.632h115.925333l16.896-106.538667H323.328l-3.669333-0.128c-4.522667-0.426667-7.594667-1.536-9.216-3.413333-2.048-2.346667-3.072-6.784-3.072-13.354667 0-6.272 1.024-10.88 3.072-13.866667 2.005333-2.986667 6.314667-4.437333 12.885333-4.437333h376.874667z m-81.194667 178.346667h-130.944l-28.629333 181.162666h171.776v-164.266666l-0.085334-4.010667c-0.213333-4.949333-0.896-8.192-2.005333-9.813333-1.450667-2.048-4.778667-3.072-10.112-3.072z" fill="#2c2c2c" p-id="2089"></path></svg>