<?xml version="1.0" standalone="no"?>
<!DOCTYPE svg PUBLIC "-//W3C//DTD SVG 1.1//EN" "http://www.w3.org/Graphics/SVG/1.1/DTD/svg11.dtd">
<svg t="1730034580492" class="icon" viewBox="0 0 1024 1024" version="1.1"
  xmlns="http://www.w3.org/2000/svg" p-id="2014" xmlns:xlink="http://www.w3.org/1999/xlink"
  width="200" height="200">
  <path
    d="M950.982 63.669H73.728a8.803 8.803 0 0 0-8.801 8.801v877.254c0 4.859 3.942 8.802 8.801 8.802h435.855c0.267 0.276 0.638 0.451 1.052 0.451s0.784-0.175 1.05-0.451h439.297a8.804 8.804 0 0 0 8.802-8.802V72.471a8.804 8.804 0 0 0-8.802-8.802z m4.401 886.056a4.406 4.406 0 0 1-4.401 4.401H512.1v-8.35a1.466 1.466 0 1 0-2.933 0v8.35H73.728a4.406 4.406 0 0 1-4.401-4.401V512.566h9.565a1.47 1.47 0 0 0 1.468-1.468 1.47 1.47 0 0 0-1.468-1.468h-9.565V72.471a4.406 4.406 0 0 1 4.401-4.401h877.254a4.406 4.406 0 0 1 4.401 4.401v877.254z"
    p-id="2015"></path>
  <path
    d="M496.071 496.534a1.47 1.47 0 0 0 0-2.074l-8.299-8.299a1.468 1.468 0 0 0-2.077 2.074l8.299 8.299a1.473 1.473 0 0 0 2.077 0zM454.578 455.041a1.47 1.47 0 0 0 0-2.074l-8.299-8.299a1.464 1.464 0 0 0-2.074 0 1.464 1.464 0 0 0 0 2.074l8.299 8.299c0.572 0.574 1.5 0.574 2.074 0zM529.263 527.652a1.47 1.47 0 0 0-2.074 0 1.473 1.473 0 0 0 0 2.077l8.299 8.299a1.468 1.468 0 0 0 2.074-2.077l-8.299-8.299zM350.846 351.309c0.574-0.571 0.574-1.5 0-2.074l-8.299-8.299a1.47 1.47 0 0 0-2.074 0 1.473 1.473 0 0 0 0 2.077l8.299 8.296a1.464 1.464 0 0 0 2.074 0zM413.085 413.547c0.574-0.571 0.574-1.5 0-2.074l-8.299-8.299a1.47 1.47 0 0 0-2.074 0 1.473 1.473 0 0 0 0 2.077l8.299 8.296a1.462 1.462 0 0 0 2.074 0zM330.101 330.564a1.47 1.47 0 0 0 0-2.074l-8.299-8.299a1.464 1.464 0 0 0-2.074 0 1.464 1.464 0 0 0 0 2.074l8.299 8.299c0.572 0.574 1.5 0.574 2.074 0zM392.339 392.802a1.47 1.47 0 0 0 0-2.074l-8.299-8.299a1.464 1.464 0 0 0-2.074 0 1.464 1.464 0 0 0 0 2.074l8.299 8.299c0.572 0.575 1.5 0.575 2.074 0zM632.995 631.383a1.464 1.464 0 0 0-2.074 0 1.464 1.464 0 0 0 0 2.074l8.299 8.299c0.571 0.574 1.5 0.574 2.074 0a1.47 1.47 0 0 0 0-2.074l-8.299-8.299zM653.74 652.129a1.468 1.468 0 0 0-2.074 0 1.473 1.473 0 0 0 0 2.077l8.299 8.296a1.464 1.464 0 0 0 2.074 0c0.574-0.571 0.574-1.5 0-2.074l-8.299-8.299zM674.488 672.877a1.468 1.468 0 0 0-2.077 2.074l8.299 8.299a1.473 1.473 0 0 0 2.077 0 1.47 1.47 0 0 0 0-2.074l-8.299-8.299zM591.501 589.89a1.47 1.47 0 0 0-2.074 0 1.473 1.473 0 0 0 0 2.077l8.299 8.296a1.464 1.464 0 0 0 2.074 0c0.574-0.572 0.574-1.5 0-2.074l-8.299-8.299zM612.249 610.638a1.468 1.468 0 0 0-2.077 2.074l8.299 8.299a1.473 1.473 0 0 0 2.077 0 1.47 1.47 0 0 0 0-2.074l-8.299-8.299zM570.756 569.145a1.47 1.47 0 0 0-2.074 0 1.464 1.464 0 0 0 0 2.074l8.299 8.299c0.571 0.574 1.5 0.574 2.074 0a1.468 1.468 0 0 0 0-2.074l-8.299-8.299zM550.011 548.4a1.468 1.468 0 0 0-2.077 2.074l8.299 8.299a1.473 1.473 0 0 0 2.077 0 1.47 1.47 0 0 0 0-2.074l-8.299-8.299zM205.624 206.087a1.47 1.47 0 0 0 0-2.074l-8.299-8.299a1.464 1.464 0 0 0-2.074 0 1.464 1.464 0 0 0 0 2.074l8.299 8.299c0.572 0.574 1.5 0.574 2.074 0zM101.892 102.355c0.574-0.572 0.574-1.5 0-2.074l-8.299-8.299a1.47 1.47 0 0 0-2.074 0 1.464 1.464 0 0 0 0 2.074l8.299 8.299a1.462 1.462 0 0 0 2.074 0zM81.147 79.536l-8.299-8.299a1.464 1.464 0 0 0-2.074 0 1.464 1.464 0 0 0 0 2.074l8.299 8.299c0.571 0.574 1.5 0.574 2.074 0a1.468 1.468 0 0 0 0-2.074zM143.386 143.848a1.47 1.47 0 0 0 0-2.074l-8.299-8.299a1.464 1.464 0 0 0-2.074 0 1.464 1.464 0 0 0 0 2.074l8.299 8.299a1.462 1.462 0 0 0 2.074 0zM122.638 123.103a1.464 1.464 0 0 0 0-2.074l-8.296-8.299a1.468 1.468 0 0 0-2.077 2.074l8.299 8.299a1.468 1.468 0 0 0 2.074 0zM224.295 226.832a1.464 1.464 0 0 0 2.074 0c0.574-0.571 0.574-1.5 0-2.074l-8.299-8.299a1.468 1.468 0 0 0-2.074 0 1.473 1.473 0 0 0 0 2.077l8.299 8.296zM309.356 309.819a1.47 1.47 0 0 0 0-2.074l-8.299-8.299a1.468 1.468 0 0 0-2.077 2.074l8.299 8.299a1.473 1.473 0 0 0 2.077 0zM369.517 372.057a1.473 1.473 0 0 0 2.077 0 1.47 1.47 0 0 0 0-2.074l-8.299-8.299a1.468 1.468 0 0 0-2.077 2.074l8.299 8.299zM431.756 434.296a1.468 1.468 0 0 0 2.077-2.074l-8.299-8.299a1.468 1.468 0 0 0-2.077 2.074l8.299 8.299zM247.117 247.58a1.468 1.468 0 0 0 0-2.074l-8.299-8.299a1.468 1.468 0 0 0-2.077 2.074l8.299 8.299a1.471 1.471 0 0 0 2.077 0zM267.863 268.325a1.47 1.47 0 0 0 0-2.074l-8.299-8.299a1.464 1.464 0 0 0-2.074 0 1.464 1.464 0 0 0 0 2.074l8.299 8.299a1.462 1.462 0 0 0 2.074 0zM288.608 289.071c0.574-0.572 0.574-1.5 0-2.074l-8.299-8.299a1.47 1.47 0 0 0-2.074 0 1.473 1.473 0 0 0 0 2.077l8.299 8.296a1.464 1.464 0 0 0 2.074 0zM162.057 164.594a1.464 1.464 0 0 0 2.074 0c0.574-0.571 0.574-1.5 0-2.074l-8.299-8.299a1.47 1.47 0 0 0-2.074 0 1.464 1.464 0 0 0 0 2.074l8.299 8.299zM184.879 185.342a1.47 1.47 0 0 0 0-2.074l-8.299-8.299a1.468 1.468 0 0 0-2.077 2.074l8.299 8.299a1.473 1.473 0 0 0 2.077 0zM695.233 693.622a1.464 1.464 0 0 0-2.074 0 1.464 1.464 0 0 0 0 2.074l8.299 8.299c0.571 0.574 1.5 0.574 2.074 0a1.47 1.47 0 0 0 0-2.074l-8.299-8.299zM475.323 475.789a1.468 1.468 0 0 0 0-2.077l-8.299-8.299a1.468 1.468 0 0 0-2.074 0 1.473 1.473 0 0 0 0 2.077l8.299 8.299a1.47 1.47 0 0 0 2.074 0zM736.726 735.115a1.468 1.468 0 0 0-2.077 2.074l8.299 8.299a1.473 1.473 0 0 0 2.077 0 1.47 1.47 0 0 0 0-2.074l-8.299-8.299zM881.948 880.337a1.464 1.464 0 0 0-2.074 0 1.464 1.464 0 0 0 0 2.074l8.299 8.299c0.571 0.574 1.5 0.574 2.074 0a1.47 1.47 0 0 0 0-2.074l-8.299-8.299zM923.442 921.831a1.468 1.468 0 0 0-2.077 2.074l8.299 8.299a1.473 1.473 0 0 0 2.077 0 1.47 1.47 0 0 0 0-2.074l-8.299-8.299zM819.71 818.099a1.464 1.464 0 0 0-2.074 0 1.464 1.464 0 0 0 0 2.074l8.299 8.299c0.572 0.574 1.5 0.574 2.074 0a1.47 1.47 0 0 0 0-2.074l-8.299-8.299zM757.472 755.86a1.464 1.464 0 0 0-2.074 0 1.464 1.464 0 0 0 0 2.074l8.299 8.299c0.571 0.574 1.5 0.574 2.074 0a1.468 1.468 0 0 0 0-2.074l-8.299-8.299zM798.965 797.354a1.468 1.468 0 0 0-2.077 2.074l8.299 8.299a1.473 1.473 0 0 0 2.077 0 1.47 1.47 0 0 0 0-2.074l-8.299-8.299zM861.203 859.592a1.468 1.468 0 0 0-2.077 2.074l8.299 8.299a1.471 1.471 0 0 0 2.077 0 1.47 1.47 0 0 0 0-2.074l-8.299-8.299zM840.455 838.844a1.47 1.47 0 0 0-2.074 0 1.471 1.471 0 0 0 0 2.077l8.299 8.296a1.464 1.464 0 0 0 2.074 0c0.574-0.571 0.574-1.5 0-2.074l-8.299-8.299zM944.187 942.576a1.464 1.464 0 0 0-2.074 0 1.464 1.464 0 0 0 0 2.074l6.309 6.309c0.571 0.574 1.5 0.574 2.074 0a1.47 1.47 0 0 0 0-2.074l-6.309-6.309zM715.978 714.367a1.47 1.47 0 0 0-2.074 0 1.473 1.473 0 0 0 0 2.077l8.299 8.296a1.464 1.464 0 0 0 2.074 0c0.574-0.571 0.574-1.5 0-2.074l-8.299-8.299zM902.694 901.083a1.468 1.468 0 0 0-2.074 2.077l8.299 8.296a1.464 1.464 0 0 0 2.074 0c0.574-0.572 0.574-1.5 0-2.074l-8.299-8.299zM778.217 776.606a1.47 1.47 0 0 0-2.074 0 1.473 1.473 0 0 0 0 2.077l8.299 8.296a1.464 1.464 0 0 0 2.074 0c0.574-0.571 0.574-1.5 0-2.074l-8.299-8.299zM461.658 558.764l-8.307 8.29a1.467 1.467 0 1 0 2.074 2.077l8.307-8.29a1.467 1.467 0 0 0-2.074-2.077zM274.757 745.294l-8.307 8.29a1.467 1.467 0 0 0 2.071 2.077l8.307-8.29a1.467 1.467 0 0 0-2.071-2.077zM793.929 227.16l-8.307 8.29a1.467 1.467 0 1 0 2.074 2.077l8.307-8.29a1.467 1.467 0 0 0-2.074-2.077zM191.687 828.193l-8.305 8.293a1.467 1.467 0 0 0-0.003 2.074c0.571 0.571 1.5 0.574 2.074 0l8.307-8.29a1.467 1.467 0 1 0-2.073-2.077zM420.124 600.216l-8.307 8.29a1.467 1.467 0 0 0 2.074 2.077l8.307-8.29a1.467 1.467 0 1 0-2.074-2.077zM170.921 848.921l-8.307 8.29a1.467 1.467 0 1 0 2.074 2.077l8.304-8.29a1.466 1.466 0 1 0-2.071-2.077zM503.192 517.314l-8.307 8.29a1.467 1.467 0 0 0 2.074 2.077l8.307-8.29c0.572-0.572 0.574-1.5 0-2.074a1.465 1.465 0 0 0-2.074-0.003zM482.427 538.039l-8.307 8.29a1.467 1.467 0 0 0 2.071 2.077l8.307-8.29a1.467 1.467 0 0 0-2.071-2.077zM879.071 144.26a1.467 1.467 0 0 0-2.074-0.003l-8.307 8.29a1.467 1.467 0 1 0 2.074 2.077l8.307-8.29a1.466 1.466 0 0 0 0-2.074zM316.291 703.844l-8.307 8.29a1.467 1.467 0 0 0 2.071 2.077l8.307-8.293a1.465 1.465 0 1 0-2.071-2.074zM337.057 683.116l-8.307 8.29a1.467 1.467 0 1 0 2.074 2.077l8.307-8.29a1.467 1.467 0 0 0-2.074-2.077zM253.989 766.018l-8.307 8.29a1.47 1.47 0 0 0-0.003 2.074 1.47 1.47 0 0 0 2.077 0.003l8.307-8.29a1.467 1.467 0 0 0-2.074-2.077zM295.523 724.569l-8.307 8.29a1.467 1.467 0 0 0 2.074 2.077l8.307-8.29a1.47 1.47 0 0 0 0-2.077 1.465 1.465 0 0 0-2.074 0zM858.306 164.985a1.467 1.467 0 0 0-2.074 0l-8.307 8.29a1.467 1.467 0 0 0 2.071 2.077l8.307-8.293c0.574-0.571 0.574-1.5 0.003-2.074zM814.698 206.435l-8.307 8.29a1.467 1.467 0 0 0 2.071 2.077l8.307-8.29a1.467 1.467 0 0 0-2.071-2.077zM399.359 620.941l-8.307 8.29a1.467 1.467 0 0 0 2.071 2.077l8.307-8.29a1.467 1.467 0 0 0-2.071-2.077zM357.825 662.391l-8.307 8.29a1.467 1.467 0 0 0 2.071 2.077l8.307-8.29a1.467 1.467 0 0 0-2.071-2.077zM378.591 641.666l-8.307 8.29a1.467 1.467 0 0 0 2.074 2.077l8.307-8.29a1.467 1.467 0 0 0-2.074-2.077zM212.455 807.468l-8.307 8.29a1.47 1.47 0 0 0-0.003 2.077 1.47 1.47 0 0 0 2.077 0l8.307-8.29a1.467 1.467 0 0 0-2.074-2.077zM233.223 786.743l-8.307 8.29a1.467 1.467 0 0 0 2.071 2.077l8.307-8.29a1.467 1.467 0 0 0-2.071-2.077zM440.893 579.492l-8.307 8.29a1.467 1.467 0 0 0 2.071 2.077l8.307-8.29a1.47 1.47 0 0 0 0.003-2.077 1.465 1.465 0 0 0-2.074 0zM775.238 247.888a1.467 1.467 0 0 0-2.074-0.003l-8.307 8.29a1.467 1.467 0 0 0 2.071 2.077l8.307-8.29c0.574-0.572 0.574-1.5 0.003-2.074zM567.568 455.139a1.467 1.467 0 0 0-2.074 0l-8.307 8.29a1.467 1.467 0 0 0 2.071 2.077l8.307-8.29a1.469 1.469 0 0 0 0.003-2.077zM523.961 496.589l-8.307 8.29a1.467 1.467 0 0 0 2.071 2.077l8.307-8.29a1.467 1.467 0 0 0-2.071-2.077zM87.853 931.82l-8.307 8.29a1.47 1.47 0 0 0-0.003 2.077 1.47 1.47 0 0 0 2.077 0l8.304-8.29a1.467 1.467 0 0 0-2.071-2.077zM648.562 372.237l-8.307 8.29a1.467 1.467 0 0 0 2.071 2.077l8.307-8.29a1.467 1.467 0 0 0-2.071-2.077zM731.63 289.335l-8.307 8.29a1.466 1.466 0 1 0 2.071 2.077l8.307-8.29a1.467 1.467 0 0 0-2.071-2.077zM607.028 413.687l-8.307 8.29a1.467 1.467 0 0 0 2.071 2.077l8.307-8.29a1.467 1.467 0 0 0-2.071-2.077zM891.529 133.899l8.307-8.29a1.467 1.467 0 0 0-2.071-2.077l-8.307 8.29a1.47 1.47 0 0 0-0.003 2.077 1.465 1.465 0 0 0 2.074 0zM586.26 434.412l-8.307 8.293a1.466 1.466 0 1 0 2.074 2.074l8.307-8.29a1.467 1.467 0 0 0-2.074-2.077zM937.93 83.449l-6.938 6.924a1.467 1.467 0 0 0 2.071 2.077l6.938-6.924a1.467 1.467 0 0 0-2.071-2.077zM920.605 102.811a1.467 1.467 0 0 0-2.074-0.003l-8.307 8.29a1.467 1.467 0 0 0 2.074 2.077l8.307-8.29c0.571-0.572 0.574-1.5 0-2.074zM629.868 392.965a1.467 1.467 0 0 0-2.074-0.003l-8.307 8.29a1.466 1.466 0 0 0 0 2.074c0.571 0.574 1.5 0.577 2.074 0.003l8.307-8.29c0.571-0.572 0.574-1.5 0-2.074zM129.387 890.371l-8.307 8.29a1.467 1.467 0 1 0 2.074 2.077l8.304-8.29a1.467 1.467 0 0 0-2.071-2.077zM108.619 911.095l-8.305 8.29a1.467 1.467 0 0 0 2.071 2.077l8.307-8.29a1.467 1.467 0 1 0-2.073-2.077zM150.153 869.646l-8.304 8.29a1.467 1.467 0 0 0 2.071 2.077l8.307-8.29a1.467 1.467 0 1 0-2.074-2.077zM712.936 310.062a1.467 1.467 0 0 0-2.074 0l-8.307 8.29a1.467 1.467 0 0 0 2.074 2.077l8.307-8.29a1.47 1.47 0 0 0 0-2.077zM538.493 486.231l8.307-8.29a1.466 1.466 0 0 0 0-2.074 1.464 1.464 0 0 0-2.074-0.003l-8.307 8.29a1.467 1.467 0 0 0 2.074 2.077zM746.162 278.976l8.307-8.29a1.467 1.467 0 0 0-2.074-2.077l-8.307 8.29a1.47 1.47 0 0 0 0 2.077c0.572 0.572 1.5 0.575 2.074 0zM669.328 351.512l-8.307 8.29a1.467 1.467 0 0 0 2.074 2.077l8.307-8.29a1.467 1.467 0 0 0-2.074-2.077zM683.86 341.154l8.307-8.29a1.467 1.467 0 0 0-2.071-2.077l-8.307 8.29a1.467 1.467 0 0 0 2.071 2.077zM829.23 196.077l8.307-8.29a1.467 1.467 0 1 0-2.074-2.077l-8.307 8.29a1.467 1.467 0 0 0 2.074 2.077zM949.966 509.63h-2.625a1.47 1.47 0 0 0-1.468 1.468 1.47 1.47 0 0 0 1.468 1.468h2.625a1.47 1.47 0 0 0 1.468-1.468 1.47 1.47 0 0 0-1.468-1.468zM256.395 511.098c0-0.809-0.655-1.468-1.465-1.468h-11.736a1.468 1.468 0 1 0 0 2.936h11.736c0.809 0 1.465-0.659 1.465-1.468zM168.379 511.098a1.47 1.47 0 0 0-1.468-1.468h-11.736a1.468 1.468 0 1 0 0 2.936h11.736a1.47 1.47 0 0 0 1.468-1.468zM196.251 509.63h-11.736a1.468 1.468 0 1 0 0 2.936h11.736a1.467 1.467 0 0 0 0-2.936zM109.699 511.098a1.47 1.47 0 0 0-1.468-1.468H96.496a1.47 1.47 0 0 0-1.468 1.468 1.47 1.47 0 0 0 1.468 1.468h11.736a1.47 1.47 0 0 0 1.467-1.468zM137.571 509.63h-11.736a1.47 1.47 0 0 0-1.468 1.468 1.47 1.47 0 0 0 1.468 1.468h11.736a1.47 1.47 0 0 0 1.468-1.468 1.47 1.47 0 0 0-1.468-1.468zM213.854 512.566h11.736a1.467 1.467 0 0 0 0-2.936h-11.736a1.468 1.468 0 1 0 0 2.936zM871.058 509.63h-11.736a1.47 1.47 0 0 0-1.468 1.468 1.47 1.47 0 0 0 1.468 1.468h11.736a1.47 1.47 0 0 0 1.468-1.468 1.47 1.47 0 0 0-1.468-1.468zM931.205 511.098a1.47 1.47 0 0 0-1.468-1.468h-11.736a1.47 1.47 0 0 0-1.468 1.468 1.47 1.47 0 0 0 1.468 1.468h11.736a1.47 1.47 0 0 0 1.468-1.468zM430.965 509.63h-11.736a1.47 1.47 0 0 0-1.468 1.468 1.47 1.47 0 0 0 1.468 1.468h11.736a1.47 1.47 0 0 0 1.468-1.468 1.47 1.47 0 0 0-1.468-1.468zM579.132 511.098a1.47 1.47 0 0 0-1.468-1.468h-11.736a1.47 1.47 0 0 0-1.468 1.468 1.47 1.47 0 0 0 1.468 1.468h11.736a1.47 1.47 0 0 0 1.468-1.468z"
    p-id="2016"></path>
  <path
    d="M518.984 509.63H512.1v-3.95a1.468 1.468 0 0 0-2.933 0v1.875l-0.649-0.649a1.464 1.464 0 0 0-2.074 0 1.464 1.464 0 0 0 0 2.074l0.676 0.676c-0.746 0.069-1.339 0.678-1.339 1.442a1.47 1.47 0 0 0 1.468 1.468h1.919v4.852a1.467 1.467 0 0 0 2.933 0v-2.781l2.643 2.642c0.571 0.574 1.5 0.574 2.074 0a1.47 1.47 0 0 0 0-2.074l-2.64-2.64h4.808a1.47 1.47 0 0 0 1.468-1.468 1.472 1.472 0 0 0-1.47-1.467zM536.588 512.566h11.736a1.47 1.47 0 0 0 1.468-1.468 1.47 1.47 0 0 0-1.468-1.468h-11.736a1.47 1.47 0 0 0-1.468 1.468 1.47 1.47 0 0 0 1.468 1.468zM888.662 512.566h11.736a1.47 1.47 0 0 0 1.468-1.468 1.47 1.47 0 0 0-1.468-1.468h-11.736a1.47 1.47 0 0 0-1.468 1.468 1.47 1.47 0 0 0 1.468 1.468zM753.699 509.63h-11.736a1.467 1.467 0 0 0 0 2.936h11.736a1.468 1.468 0 1 0 0-2.936zM724.359 509.63h-11.733a1.468 1.468 0 1 0 0 2.936h11.733a1.468 1.468 0 1 0 0-2.936zM784.507 511.098c0-0.809-0.656-1.468-1.468-1.468h-11.736a1.467 1.467 0 0 0 0 2.936h11.736c0.812 0 1.468-0.659 1.468-1.468zM665.683 509.63h-11.736a1.468 1.468 0 1 0 0 2.936h11.736a1.467 1.467 0 0 0 0-2.936zM637.808 511.098c0-0.809-0.656-1.468-1.465-1.468h-11.736a1.468 1.468 0 1 0 0 2.936h11.736c0.809 0 1.465-0.659 1.465-1.468zM607.004 509.63h-11.736a1.468 1.468 0 1 0 0 2.936h11.736a1.47 1.47 0 0 0 1.468-1.468 1.47 1.47 0 0 0-1.468-1.468zM342.946 509.63H331.21a1.467 1.467 0 0 0 0 2.936h11.736a1.468 1.468 0 1 0 0-2.936zM812.379 509.63h-11.736a1.467 1.467 0 0 0 0 2.936h11.736a1.468 1.468 0 1 0 0-2.936zM696.487 511.098c0-0.809-0.656-1.468-1.465-1.468h-11.736a1.468 1.468 0 1 0 0 2.936h11.736c0.81 0 1.465-0.659 1.465-1.468zM461.773 511.098a1.47 1.47 0 0 0-1.468-1.468h-11.736a1.47 1.47 0 0 0-1.468 1.468 1.47 1.47 0 0 0 1.468 1.468h11.736a1.47 1.47 0 0 0 1.468-1.468zM373.754 511.098c0-0.809-0.656-1.468-1.468-1.468H360.55a1.467 1.467 0 0 0 0 2.936h11.736c0.812 0 1.468-0.659 1.468-1.468zM843.186 511.098a1.47 1.47 0 0 0-1.468-1.468h-11.736a1.47 1.47 0 0 0-1.468 1.468 1.47 1.47 0 0 0 1.468 1.468h11.736a1.47 1.47 0 0 0 1.468-1.468zM315.074 511.098c0-0.809-0.656-1.468-1.468-1.468H301.87a1.467 1.467 0 0 0 0 2.936h11.736c0.813 0 1.468-0.659 1.468-1.468zM284.27 509.63h-11.736a1.468 1.468 0 1 0 0 2.936h11.736a1.467 1.467 0 0 0 0-2.936zM401.626 509.63H389.89a1.467 1.467 0 0 0 0 2.936h11.736a1.468 1.468 0 1 0 0-2.936zM489.645 509.63h-11.736a1.47 1.47 0 0 0-1.468 1.468 1.47 1.47 0 0 0 1.468 1.468h11.736a1.47 1.47 0 0 0 1.468-1.468 1.47 1.47 0 0 0-1.468-1.468zM510.635 225.489c0.809 0 1.465-0.656 1.465-1.465v-11.737c0-0.809-0.656-1.468-1.465-1.468s-1.468 0.659-1.468 1.468v11.737c0 0.809 0.659 1.465 1.468 1.465zM510.635 284.169c0.809 0 1.465-0.658 1.465-1.468v-11.734a1.466 1.466 0 1 0-2.933 0v11.734c0 0.81 0.659 1.468 1.468 1.468zM510.635 313.507c0.809 0 1.465-0.656 1.465-1.465v-11.737a1.468 1.468 0 0 0-2.933 0v11.737c0 0.809 0.659 1.465 1.468 1.465zM510.635 342.847c0.809 0 1.465-0.656 1.465-1.465v-11.737c0-0.809-0.656-1.468-1.465-1.468s-1.468 0.659-1.468 1.468v11.737c0 0.809 0.659 1.465 1.468 1.465zM510.635 196.152c0.809 0 1.465-0.659 1.465-1.468v-11.737a1.468 1.468 0 0 0-2.933 0v11.737a1.47 1.47 0 0 0 1.468 1.468zM510.635 372.187c0.809 0 1.465-0.656 1.465-1.468v-11.734c0-0.809-0.656-1.468-1.465-1.468s-1.468 0.659-1.468 1.468v11.734c0 0.813 0.659 1.468 1.468 1.468zM510.635 108.131c0.809 0 1.465-0.656 1.465-1.465V94.928c0-0.809-0.656-1.468-1.465-1.468s-1.468 0.659-1.468 1.468v11.737c0 0.81 0.659 1.466 1.468 1.466zM510.635 254.829c0.809 0 1.465-0.656 1.465-1.468v-11.734c0-0.809-0.656-1.468-1.465-1.468s-1.468 0.659-1.468 1.468v11.734c0 0.813 0.659 1.468 1.468 1.468zM510.635 166.811c0.809 0 1.465-0.658 1.465-1.468v-11.734a1.466 1.466 0 1 0-2.933 0v11.734c0 0.81 0.659 1.468 1.468 1.468zM510.635 137.471c0.809 0 1.465-0.656 1.465-1.468v-11.734a1.467 1.467 0 1 0-2.933 0v11.734c0 0.812 0.659 1.468 1.468 1.468zM510.635 78.793c0.809 0 1.465-0.658 1.465-1.468v-2.628a1.468 1.468 0 0 0-2.933 0v2.628c0 0.81 0.659 1.468 1.468 1.468zM510.635 680.251a1.47 1.47 0 0 0-1.468 1.468v11.734a1.468 1.468 0 1 0 2.933 0v-11.734c0-0.809-0.656-1.468-1.465-1.468zM510.635 768.269a1.47 1.47 0 0 0-1.468 1.468v11.737a1.467 1.467 0 0 0 2.933 0v-11.737c0-0.809-0.656-1.468-1.465-1.468zM510.635 650.911a1.47 1.47 0 0 0-1.468 1.468v11.737a1.467 1.467 0 0 0 2.933 0v-11.737c0-0.809-0.656-1.468-1.465-1.468zM510.635 738.932c-0.809 0-1.468 0.656-1.468 1.465v11.737a1.467 1.467 0 0 0 2.933 0v-11.737c0-0.809-0.656-1.465-1.465-1.465zM510.635 709.592c-0.809 0-1.468 0.656-1.468 1.468v11.734a1.467 1.467 0 0 0 2.933 0V711.06c0-0.813-0.656-1.468-1.465-1.468zM510.635 621.574c-0.809 0-1.468 0.656-1.468 1.465v11.737a1.468 1.468 0 0 0 2.933 0v-11.737c0-0.81-0.656-1.465-1.465-1.465zM510.635 401.528c0.809 0 1.465-0.659 1.465-1.468v-11.734a1.466 1.466 0 1 0-2.933 0v11.734a1.47 1.47 0 0 0 1.468 1.468zM510.635 562.893a1.47 1.47 0 0 0-1.468 1.468v11.734a1.468 1.468 0 1 0 2.933 0v-11.734c0-0.809-0.656-1.468-1.465-1.468zM510.635 592.233c-0.809 0-1.468 0.656-1.468 1.468v11.734a1.468 1.468 0 0 0 2.933 0v-11.734c0-0.812-0.656-1.468-1.465-1.468zM510.635 533.553a1.47 1.47 0 0 0-1.468 1.468v11.737a1.467 1.467 0 0 0 2.933 0v-11.737c0-0.81-0.656-1.468-1.465-1.468zM510.635 460.205c0.809 0 1.465-0.655 1.465-1.468v-11.734a1.468 1.468 0 1 0-2.933 0v11.734c0 0.813 0.659 1.468 1.468 1.468zM510.635 489.545c0.809 0 1.465-0.658 1.465-1.468v-11.734a1.466 1.466 0 1 0-2.933 0v11.734c0 0.81 0.659 1.468 1.468 1.468zM510.635 914.968a1.47 1.47 0 0 0-1.468 1.468v11.734a1.468 1.468 0 1 0 2.933 0v-11.734c0-0.81-0.656-1.468-1.465-1.468zM510.635 430.865c0.809 0 1.465-0.656 1.465-1.465v-11.737a1.468 1.468 0 0 0-2.933 0V429.4c0 0.809 0.659 1.465 1.468 1.465zM510.635 856.29c-0.809 0-1.468 0.656-1.468 1.465v11.737a1.468 1.468 0 0 0 2.933 0v-11.737c0-0.809-0.656-1.465-1.465-1.465zM510.635 826.95c-0.809 0-1.468 0.656-1.468 1.468v11.734a1.468 1.468 0 0 0 2.933 0v-11.734c0-0.813-0.656-1.468-1.465-1.468zM510.635 797.609a1.47 1.47 0 0 0-1.468 1.468v11.734a1.468 1.468 0 1 0 2.933 0v-11.734c0-0.809-0.656-1.468-1.465-1.468zM510.635 885.627a1.47 1.47 0 0 0-1.468 1.468v11.737a1.467 1.467 0 0 0 2.933 0v-11.737c0-0.809-0.656-1.468-1.465-1.468z"
    p-id="2017"></path>
</svg>