<?xml version="1.0" encoding="utf-8"?>
<!-- Generator: Adobe Illustrator 28.4.1, SVG Export Plug-In . SVG Version: 6.00 Build 0)  -->
<svg version="1.1" id="图层_1" xmlns:bx="https://boxy-svg.com"
	 xmlns="http://www.w3.org/2000/svg" xmlns:xlink="http://www.w3.org/1999/xlink" x="0px" y="0px" viewBox="0 0 200 200"
	 style="enable-background:new 0 0 200 200;" xml:space="preserve">
<style type="text/css">
	.st0{display:none;fill:#333333;enable-background:new    ;}
	.st1{font-family:'ZhuqueFangsong-Regular';}
	.st2{font-size:137.2266px;}
</style>
<g id="田">
	<path d="M185.7,12.6H14.3c-0.9,0-1.7,0.8-1.7,1.7v171.3c0,0.9,0.8,1.7,1.7,1.7h85.1c0.1,0.1,0.1,0.1,0.2,0.1s0.2,0,0.2-0.1h85.8
		c0.9,0,1.7-0.8,1.7-1.7V14.3C187.4,13.3,186.6,12.6,185.7,12.6z M186.5,185.6c0,0.5-0.4,0.9-0.9,0.9H100v-1.6
		c0-0.2-0.2-0.4-0.4-0.2c-0.1,0.1-0.1,0.1-0.1,0.2v1.6h-85c-0.5,0-0.9-0.4-0.9-0.9v-85.4h1.9c0.2,0,0.3-0.1,0.3-0.3
		c0-0.2-0.1-0.3-0.3-0.3h-1.9V14.3c0-0.5,0.4-0.9,0.9-0.9h171.3c0.5,0,0.9,0.4,0.9,0.9V185.6z"/>
	<path d="M96.8,97.1c0.1-0.1,0.1-0.3,0-0.4l-1.6-1.6c-0.2-0.2-0.4-0.1-0.5,0.1c0,0.1,0,0.2,0.1,0.3l1.6,1.6
		C96.5,97.2,96.7,97.2,96.8,97.1z M88.7,89c0.1-0.1,0.1-0.3,0-0.4L87.1,87c-0.1-0.1-0.3-0.1-0.4,0c-0.1,0.1-0.1,0.3,0,0.4l1.6,1.6
		C88.4,89.1,88.6,89.1,88.7,89z M103.3,103.2c-0.1-0.1-0.3-0.1-0.4,0c-0.1,0.1-0.1,0.3,0,0.4l1.6,1.6c0.2,0.2,0.4,0.1,0.5-0.1
		c0-0.1,0-0.2-0.1-0.3L103.3,103.2z M68.5,68.7c0.1-0.1,0.1-0.3,0-0.4l-1.6-1.6c-0.1-0.1-0.3-0.1-0.4,0c-0.1,0.1-0.1,0.3,0,0.4
		l1.6,1.6C68.2,68.9,68.3,68.9,68.5,68.7z M80.6,80.9c0.1-0.1,0.1-0.3,0-0.4L79,78.9c-0.1-0.1-0.3-0.1-0.4,0c-0.1,0.1-0.1,0.3,0,0.4
		l1.6,1.6C80.3,81,80.5,81,80.6,80.9z M64.4,64.7c0.1-0.1,0.1-0.3,0-0.4l-1.6-1.6c-0.1-0.1-0.3-0.1-0.4,0c-0.1,0.1-0.1,0.3,0,0.4
		l1.6,1.6C64.1,64.8,64.3,64.8,64.4,64.7z M76.6,76.9c0.1-0.1,0.1-0.3,0-0.4l-1.6-1.6c-0.1-0.1-0.3-0.1-0.4,0
		c-0.1,0.1-0.1,0.3,0,0.4l1.6,1.6C76.3,77,76.4,77,76.6,76.9z M123.6,123.4c-0.1-0.1-0.3-0.1-0.4,0c-0.1,0.1-0.1,0.3,0,0.4l1.6,1.6
		c0.1,0.1,0.3,0.1,0.4,0c0.1-0.1,0.1-0.3,0-0.4L123.6,123.4z M127.6,127.5c-0.1-0.1-0.3-0.1-0.4,0c-0.1,0.1-0.1,0.3,0,0.4l1.6,1.6
		c0.1,0.1,0.3,0.1,0.4,0c0.1-0.1,0.1-0.3,0-0.4L127.6,127.5z M131.7,131.6c-0.2-0.2-0.4-0.1-0.5,0.1c0,0.1,0,0.2,0.1,0.3l1.6,1.6
		c0.1,0.1,0.3,0.1,0.4,0c0.1-0.1,0.1-0.3,0-0.4L131.7,131.6z M115.5,115.3c-0.1-0.1-0.3-0.1-0.4,0c-0.1,0.1-0.1,0.3,0,0.4l1.6,1.6
		c0.1,0.1,0.3,0.1,0.4,0c0.1-0.1,0.1-0.3,0-0.4L115.5,115.3z M119.5,119.4c-0.2-0.2-0.4-0.1-0.5,0.1c0,0.1,0,0.2,0.1,0.3l1.6,1.6
		c0.1,0.1,0.3,0.1,0.4,0c0.1-0.1,0.1-0.3,0-0.4L119.5,119.4z M111.4,111.3c-0.1-0.1-0.3-0.1-0.4,0c-0.1,0.1-0.1,0.3,0,0.4l1.6,1.6
		c0.1,0.1,0.3,0.1,0.4,0c0.1-0.1,0.1-0.3,0-0.4L111.4,111.3z M107.4,107.2c-0.2-0.2-0.4-0.1-0.5,0.1c0,0.1,0,0.2,0.1,0.3l1.6,1.6
		c0.1,0.1,0.3,0.1,0.4,0c0.1-0.1,0.1-0.3,0-0.4L107.4,107.2z M40.1,40.4c0.1-0.1,0.1-0.3,0-0.4l-1.6-1.6c-0.1-0.1-0.3-0.1-0.4,0
		c-0.1,0.1-0.1,0.3,0,0.4l1.6,1.6C39.8,40.5,40,40.5,40.1,40.4z M19.8,20.1c0.1-0.1,0.1-0.3,0-0.4l-1.6-1.6c-0.1-0.1-0.3-0.1-0.4,0
		c-0.1,0.1-0.1,0.3,0,0.4l1.6,1.6C19.5,20.2,19.7,20.2,19.8,20.1z M15.8,15.7L14.2,14c-0.1-0.1-0.3-0.1-0.4,0
		c-0.1,0.1-0.1,0.3,0,0.4l1.6,1.6c0.1,0.1,0.3,0.1,0.4,0C15.9,16,15.9,15.8,15.8,15.7z M27.9,28.2c0.1-0.1,0.1-0.3,0-0.4l-1.6-1.6
		c-0.1-0.1-0.3-0.1-0.4,0c-0.1,0.1-0.1,0.3,0,0.4l1.6,1.6C27.6,28.3,27.8,28.3,27.9,28.2z M23.9,24.2c0.1-0.1,0.1-0.3,0-0.4
		l-1.6-1.6c-0.2-0.2-0.4-0.1-0.5,0.1c0,0.1,0,0.2,0.1,0.3l1.6,1.6C23.6,24.3,23.8,24.3,23.9,24.2z M43.7,44.4c0.1,0.1,0.3,0.1,0.4,0
		c0.1-0.1,0.1-0.3,0-0.4l-1.6-1.6c-0.1-0.1-0.3-0.1-0.4,0c-0.1,0.1-0.1,0.3,0,0.4L43.7,44.4z M60.4,60.6c0.1-0.1,0.1-0.3,0-0.4
		l-1.6-1.6c-0.2-0.2-0.4-0.1-0.5,0.1c0,0.1,0,0.2,0.1,0.3l1.6,1.6C60.1,60.8,60.2,60.8,60.4,60.6z M72.1,72.8c0.1,0.1,0.3,0.1,0.4,0
		c0.1-0.1,0.1-0.3,0-0.4l-1.6-1.6c-0.2-0.2-0.4-0.1-0.5,0.1c0,0.1,0,0.2,0.1,0.3L72.1,72.8z M84.3,85c0.2,0.2,0.4,0.1,0.5-0.1
		c0-0.1,0-0.2-0.1-0.3L83,82.9c-0.2-0.2-0.4-0.1-0.5,0.1c0,0.1,0,0.2,0.1,0.3L84.3,85z M48.2,48.5c0.1-0.1,0.1-0.3,0-0.4l-1.6-1.6
		c-0.2-0.2-0.4-0.1-0.5,0.1c0,0.1,0,0.2,0.1,0.3l1.6,1.6C47.9,48.6,48.1,48.6,48.2,48.5z M52.2,52.5c0.1-0.1,0.1-0.3,0-0.4l-1.6-1.6
		c-0.1-0.1-0.3-0.1-0.4,0c-0.1,0.1-0.1,0.3,0,0.4l1.6,1.6C52,52.7,52.1,52.7,52.2,52.5z M56.3,56.6c0.1-0.1,0.1-0.3,0-0.4l-1.6-1.6
		c-0.1-0.1-0.3-0.1-0.4,0c-0.1,0.1-0.1,0.3,0,0.4l1.6,1.6C56,56.7,56.2,56.7,56.3,56.6z M31.6,32.3c0.1,0.1,0.3,0.1,0.4,0
		c0.1-0.1,0.1-0.3,0-0.4l-1.6-1.6c-0.1-0.1-0.3-0.1-0.4,0c-0.1,0.1-0.1,0.3,0,0.4L31.6,32.3z M36,36.3c0.1-0.1,0.1-0.3,0-0.4
		l-1.6-1.6c-0.2-0.2-0.4-0.1-0.5,0.1c0,0.1,0,0.2,0.1,0.3l1.6,1.6C35.7,36.4,35.9,36.4,36,36.3z M135.7,135.6
		c-0.1-0.1-0.3-0.1-0.4,0c-0.1,0.1-0.1,0.3,0,0.4l1.6,1.6c0.1,0.1,0.3,0.1,0.4,0c0.1-0.1,0.1-0.3,0-0.4L135.7,135.6z M92.8,93.1
		c0.1-0.1,0.1-0.3,0-0.4L91.1,91c-0.1-0.1-0.3-0.1-0.4,0c-0.1,0.1-0.1,0.3,0,0.4l1.6,1.6C92.5,93.2,92.7,93.2,92.8,93.1z
		 M143.8,143.7c-0.2-0.2-0.4-0.1-0.5,0.1c0,0.1,0,0.2,0.1,0.3l1.6,1.6c0.1,0.1,0.3,0.1,0.4,0c0.1-0.1,0.1-0.3,0-0.4L143.8,143.7z
		 M172.2,172.1c-0.1-0.1-0.3-0.1-0.4,0c-0.1,0.1-0.1,0.3,0,0.4l1.6,1.6c0.1,0.1,0.3,0.1,0.4,0c0.1-0.1,0.1-0.3,0-0.4L172.2,172.1z
		 M180.3,180.2c-0.2-0.2-0.4-0.1-0.5,0.1c0,0.1,0,0.2,0.1,0.3l1.6,1.6c0.1,0.1,0.3,0.1,0.4,0c0.1-0.1,0.1-0.3,0-0.4L180.3,180.2z
		 M160,159.9c-0.1-0.1-0.3-0.1-0.4,0c-0.1,0.1-0.1,0.3,0,0.4l1.6,1.6c0.1,0.1,0.3,0.1,0.4,0c0.1-0.1,0.1-0.3,0-0.4L160,159.9z
		 M147.9,147.8c-0.1-0.1-0.3-0.1-0.4,0c-0.1,0.1-0.1,0.3,0,0.4l1.6,1.6c0.1,0.1,0.3,0.1,0.4,0c0.1-0.1,0.1-0.3,0-0.4L147.9,147.8z
		 M156,155.9c-0.2-0.2-0.4-0.1-0.5,0.1c0,0.1,0,0.2,0.1,0.3l1.6,1.6c0.1,0.1,0.3,0.1,0.4,0c0.1-0.1,0.1-0.3,0-0.4L156,155.9z
		 M168.1,168c-0.2-0.2-0.4-0.1-0.5,0.1c0,0.1,0,0.2,0.1,0.3l1.6,1.6c0.1,0.1,0.3,0.1,0.4,0c0.1-0.1,0.1-0.3,0-0.4L168.1,168z
		 M164.1,164c-0.1-0.1-0.3-0.1-0.4,0c-0.1,0.1-0.1,0.3,0,0.4l1.6,1.6c0.1,0.1,0.3,0.1,0.4,0c0.1-0.1,0.1-0.3,0-0.4L164.1,164z
		 M184.3,184.2c-0.1-0.1-0.3-0.1-0.4,0c-0.1,0.1-0.1,0.3,0,0.4l1.2,1.2c0.1,0.1,0.3,0.1,0.4,0c0.1-0.1,0.1-0.3,0-0.4L184.3,184.2z
		 M139.8,139.7c-0.1-0.1-0.3-0.1-0.4,0c-0.1,0.1-0.1,0.3,0,0.4l1.6,1.6c0.1,0.1,0.3,0.1,0.4,0c0.1-0.1,0.1-0.3,0-0.4L139.8,139.7z
		 M176.2,176.1c-0.2-0.2-0.4-0.1-0.5,0.1c0,0.1,0,0.2,0.1,0.3l1.6,1.6c0.1,0.1,0.3,0.1,0.4,0c0.1-0.1,0.1-0.3,0-0.4L176.2,176.1z
		 M151.9,151.8c-0.1-0.1-0.3-0.1-0.4,0c-0.1,0.1-0.1,0.3,0,0.4l1.6,1.6c0.1,0.1,0.3,0.1,0.4,0c0.1-0.1,0.1-0.3,0-0.4L151.9,151.8z
		 M90.1,109.3l-1.6,1.6c-0.2,0.2-0.1,0.4,0.1,0.5c0.1,0,0.2,0,0.3-0.1l1.6-1.6c0.2-0.2,0.1-0.4-0.1-0.5
		C90.3,109.2,90.2,109.2,90.1,109.3z M53.6,145.7l-1.6,1.6c-0.2,0.2-0.1,0.4,0.1,0.5c0.1,0,0.2,0,0.3-0.1l1.6-1.6
		c0.2-0.2,0.1-0.4-0.1-0.5C53.8,145.6,53.7,145.6,53.6,145.7z M155,44.5l-1.6,1.6c-0.2,0.2-0.1,0.4,0.1,0.5c0.1,0,0.2,0,0.3-0.1
		l1.6-1.6c0.2-0.2,0.1-0.4-0.1-0.5C155.2,44.4,155.1,44.4,155,44.5z M37.4,161.9l-1.6,1.6c-0.1,0.1-0.1,0.3,0,0.4
		c0.1,0.1,0.3,0.1,0.4,0l1.6-1.6c0.2-0.2,0.1-0.4-0.1-0.5C37.5,161.8,37.4,161.8,37.4,161.9z M82,117.4l-1.6,1.6
		c-0.2,0.2-0.1,0.4,0.1,0.5c0.1,0,0.2,0,0.3-0.1l1.6-1.6c0.2-0.2,0.1-0.4-0.1-0.5C82.2,117.3,82.1,117.3,82,117.4z M33.3,165.9
		l-1.6,1.6c-0.2,0.2-0.1,0.4,0.1,0.5c0.1,0,0.2,0,0.3-0.1l1.6-1.6c0.2-0.2,0.1-0.4-0.1-0.5C33.5,165.8,33.4,165.9,33.3,165.9z
		 M98.2,101.2l-1.6,1.6c-0.2,0.2-0.1,0.4,0.1,0.5c0.1,0,0.2,0,0.3-0.1l1.6-1.6c0.1-0.1,0.1-0.3,0-0.4
		C98.5,101.1,98.3,101.1,98.2,101.2z M94.2,105.2l-1.6,1.6c-0.2,0.2-0.1,0.4,0.1,0.5c0.1,0,0.2,0,0.3-0.1l1.6-1.6
		c0.2-0.2,0.1-0.4-0.1-0.5C94.3,105.1,94.2,105.2,94.2,105.2z M171.6,28.3c-0.1-0.1-0.3-0.1-0.4,0l-1.6,1.6
		c-0.2,0.2-0.1,0.4,0.1,0.5c0.1,0,0.2,0,0.3-0.1l1.6-1.6C171.7,28.6,171.7,28.4,171.6,28.3z M61.7,137.6l-1.6,1.6
		c-0.2,0.2-0.1,0.4,0.1,0.5c0.1,0,0.2,0,0.3-0.1l1.6-1.6c0.2-0.2,0.1-0.4-0.1-0.5C61.9,137.5,61.8,137.5,61.7,137.6z M65.8,133.6
		l-1.6,1.6c-0.2,0.2-0.1,0.4,0.1,0.5c0.1,0,0.2,0,0.3-0.1l1.6-1.6c0.2-0.2,0.1-0.4-0.1-0.5C65.9,133.5,65.8,133.5,65.8,133.6z
		 M49.5,149.7l-1.6,1.6c-0.1,0.1-0.1,0.3,0,0.4c0.1,0.1,0.3,0.1,0.4,0l1.6-1.6c0.2-0.2,0.1-0.4-0.1-0.5
		C49.7,149.6,49.6,149.7,49.5,149.7z M57.7,141.6l-1.6,1.6c-0.2,0.2-0.1,0.4,0.1,0.5c0.1,0,0.2,0,0.3-0.1l1.6-1.6
		c0.1-0.1,0.1-0.3,0-0.4C57.9,141.5,57.8,141.5,57.7,141.6z M167.6,32.4c-0.1-0.1-0.3-0.1-0.4,0l-1.6,1.6c-0.2,0.2-0.1,0.4,0.1,0.5
		c0.1,0,0.2,0,0.3-0.1l1.6-1.6C167.7,32.6,167.7,32.5,167.6,32.4z M159.1,40.5l-1.6,1.6c-0.2,0.2-0.1,0.4,0.1,0.5
		c0.1,0,0.2,0,0.3-0.1l1.6-1.6c0.2-0.2,0.1-0.4-0.1-0.5C159.2,40.4,159.1,40.4,159.1,40.5z M77.9,121.4l-1.6,1.6
		c-0.2,0.2-0.1,0.4,0.1,0.5c0.1,0,0.2,0,0.3-0.1l1.6-1.6c0.2-0.2,0.1-0.4-0.1-0.5C78.1,121.3,78,121.3,77.9,121.4z M69.8,129.5
		l-1.6,1.6c-0.2,0.2-0.1,0.4,0.1,0.5c0.1,0,0.2,0,0.3-0.1l1.6-1.6c0.2-0.2,0.1-0.4-0.1-0.5C70,129.4,69.9,129.4,69.8,129.5z
		 M73.9,125.5l-1.6,1.6c-0.2,0.2-0.1,0.4,0.1,0.5c0.1,0,0.2,0,0.3-0.1l1.6-1.6c0.2-0.2,0.1-0.4-0.1-0.5
		C74.1,125.4,73.9,125.4,73.9,125.5z M41.4,157.8l-1.6,1.6c-0.1,0.1-0.1,0.3,0,0.4c0.1,0.1,0.3,0.1,0.4,0l1.6-1.6
		c0.2-0.2,0.1-0.4-0.1-0.5C41.6,157.7,41.5,157.8,41.4,157.8z M45.5,153.8l-1.6,1.6c-0.2,0.2-0.1,0.4,0.1,0.5c0.1,0,0.2,0,0.3-0.1
		l1.6-1.6c0.2-0.2,0.1-0.4-0.1-0.5C45.7,153.7,45.6,153.7,45.5,153.8z M86,113.3l-1.6,1.6c-0.2,0.2-0.1,0.4,0.1,0.5
		c0.1,0,0.2,0,0.3-0.1l1.6-1.6c0.1-0.1,0.1-0.3,0-0.4C86.3,113.2,86.2,113.2,86,113.3z M151.3,48.5c-0.1-0.1-0.3-0.1-0.4,0l-1.6,1.6
		c-0.2,0.2-0.1,0.4,0.1,0.5c0.1,0,0.2,0,0.3-0.1l1.6-1.6C151.5,48.8,151.5,48.7,151.3,48.5z M110.8,89c-0.1-0.1-0.3-0.1-0.4,0
		l-1.6,1.6c-0.2,0.2-0.1,0.4,0.1,0.5c0.1,0,0.2,0,0.3-0.1l1.6-1.6C110.9,89.3,110.9,89.1,110.8,89z M102.3,97.1l-1.6,1.6
		c-0.2,0.2-0.1,0.4,0.1,0.5c0.1,0,0.2,0,0.3-0.1l1.6-1.6c0.2-0.2,0.1-0.4-0.1-0.5C102.4,97,102.3,97.1,102.3,97.1z M17.1,182.1
		l-1.6,1.6c-0.1,0.1-0.1,0.3,0,0.4c0.1,0.1,0.3,0.1,0.4,0l1.6-1.6c0.2-0.2,0.1-0.4-0.1-0.5C17.3,182,17.2,182.1,17.1,182.1z
		 M126.6,72.8l-1.6,1.6c-0.2,0.2-0.1,0.4,0.1,0.5c0.1,0,0.2,0,0.3-0.1l1.6-1.6c0.2-0.2,0.1-0.4-0.1-0.5
		C126.8,72.7,126.7,72.8,126.6,72.8z M142.8,56.6l-1.6,1.6c-0.2,0.2-0.1,0.4,0.1,0.5c0.1,0,0.2,0,0.3-0.1l1.6-1.6
		c0.2-0.2,0.1-0.4-0.1-0.5C143,56.5,142.9,56.6,142.8,56.6z M118.5,80.9l-1.6,1.6c-0.2,0.2-0.1,0.4,0.1,0.5c0.1,0,0.2,0,0.3-0.1
		l1.6-1.6c0.2-0.2,0.1-0.4-0.1-0.5C118.7,80.8,118.6,80.9,118.5,80.9z M174.1,26.3l1.6-1.6c0.2-0.2,0.1-0.4-0.1-0.5
		c-0.1,0-0.2,0-0.3,0.1l-1.6,1.6c-0.1,0.1-0.1,0.3,0,0.4C173.8,26.4,173.9,26.4,174.1,26.3z M114.4,85l-1.6,1.6
		c-0.2,0.2-0.1,0.4,0.1,0.5c0.1,0,0.2,0,0.3-0.1l1.6-1.6c0.2-0.2,0.1-0.4-0.1-0.5C114.6,84.9,114.5,84.9,114.4,85z M183.1,16.4
		l-1.4,1.4c-0.2,0.2-0.1,0.4,0.1,0.5c0.1,0,0.2,0,0.3-0.1l1.4-1.4c0.2-0.2,0.1-0.4-0.1-0.5C183.3,16.3,183.2,16.4,183.1,16.4z
		 M179.7,20.2c-0.1-0.1-0.3-0.1-0.4,0l-1.6,1.6c-0.2,0.2-0.1,0.4,0.1,0.5c0.1,0,0.2,0,0.3-0.1l1.6-1.6
		C179.8,20.5,179.8,20.3,179.7,20.2z M123,76.9c-0.1-0.1-0.3-0.1-0.4,0l-1.6,1.6c-0.1,0.1-0.1,0.3,0,0.4c0.1,0.1,0.3,0.1,0.4,0
		l1.6-1.6C123.1,77.2,123.1,77,123,76.9z M25.2,174l-1.6,1.6c-0.2,0.2-0.1,0.4,0.1,0.5c0.1,0,0.2,0,0.3-0.1l1.6-1.6
		c0.2-0.2,0.1-0.4-0.1-0.5C25.4,173.9,25.3,174,25.2,174z M21.1,178.1l-1.6,1.6c-0.2,0.2-0.1,0.4,0.1,0.5c0.1,0,0.2,0,0.3-0.1
		l1.6-1.6c0.2-0.2,0.1-0.4-0.1-0.5C21.3,178,21.2,178,21.1,178.1z M29.3,170l-1.6,1.6c-0.2,0.2-0.1,0.4,0.1,0.5c0.1,0,0.2,0,0.3-0.1
		l1.6-1.6c0.2-0.2,0.1-0.4-0.1-0.5C29.4,169.9,29.3,169.9,29.3,170z M139.2,60.7c-0.1-0.1-0.3-0.1-0.4,0l-1.6,1.6
		c-0.2,0.2-0.1,0.4,0.1,0.5c0.1,0,0.2,0,0.3-0.1l1.6-1.6C139.3,61,139.3,60.8,139.2,60.7z M105.1,95.1l1.6-1.6
		c0.1-0.1,0.1-0.3,0-0.4c-0.1-0.1-0.3-0.1-0.4,0l-1.6,1.6c-0.2,0.2-0.1,0.4,0.1,0.5C104.9,95.2,105,95.2,105.1,95.1z M145.7,54.6
		l1.6-1.6c0.2-0.2,0.1-0.4-0.1-0.5c-0.1,0-0.2,0-0.3,0.1l-1.6,1.6c-0.1,0.1-0.1,0.3,0,0.4C145.4,54.7,145.6,54.7,145.7,54.6z
		 M130.7,68.8l-1.6,1.6c-0.2,0.2-0.1,0.4,0.1,0.5c0.1,0,0.2,0,0.3-0.1l1.6-1.6c0.2-0.2,0.1-0.4-0.1-0.5
		C130.8,68.7,130.7,68.7,130.7,68.8z M133.5,66.8l1.6-1.6c0.2-0.2,0.1-0.4-0.1-0.5c-0.1,0-0.2,0-0.3,0.1l-1.6,1.6
		c-0.2,0.2-0.1,0.4,0.1,0.5C133.3,66.9,133.4,66.8,133.5,66.8z M161.9,38.4l1.6-1.6c0.2-0.2,0.1-0.4-0.1-0.5c-0.1,0-0.2,0-0.3,0.1
		l-1.6,1.6c-0.2,0.2-0.1,0.4,0.1,0.5C161.7,38.5,161.8,38.5,161.9,38.4z M185.5,99.7H185c-0.2,0-0.3,0.1-0.3,0.3
		c0,0.2,0.1,0.3,0.3,0.3h0.5c0.2,0,0.3-0.1,0.3-0.3C185.8,99.8,185.6,99.7,185.5,99.7z M50,100c0-0.2-0.1-0.3-0.3-0.3h-2.3
		c-0.2,0-0.4,0.2-0.2,0.4c0.1,0.1,0.1,0.1,0.2,0.1h2.3C49.9,100.2,50,100.1,50,100z M32.8,100c0-0.2-0.1-0.3-0.3-0.3h-2.3
		c-0.2,0-0.4,0.2-0.2,0.4c0.1,0.1,0.1,0.1,0.2,0.1h2.3C32.7,100.2,32.8,100.1,32.8,100z M38.3,99.7H36c-0.2,0-0.4,0.2-0.2,0.4
		c0.1,0.1,0.1,0.1,0.2,0.1h2.3c0.2,0,0.4-0.2,0.2-0.4C38.5,99.7,38.4,99.7,38.3,99.7z M21.4,100c0-0.2-0.1-0.3-0.3-0.3h-2.3
		c-0.2,0-0.3,0.1-0.3,0.3c0,0.2,0.1,0.3,0.3,0.3h2.3C21.2,100.2,21.4,100.1,21.4,100z M26.8,99.7h-2.3c-0.2,0-0.3,0.1-0.3,0.3
		c0,0.2,0.1,0.3,0.3,0.3h2.3c0.2,0,0.3-0.1,0.3-0.3C27.1,99.8,27,99.7,26.8,99.7z M41.7,100.2H44c0.2,0,0.4-0.2,0.2-0.4
		c-0.1-0.1-0.1-0.1-0.2-0.1h-2.3c-0.2,0-0.4,0.2-0.2,0.4C41.5,100.2,41.6,100.2,41.7,100.2z M170.1,99.7h-2.3
		c-0.2,0-0.3,0.1-0.3,0.3c0,0.2,0.1,0.3,0.3,0.3h2.3c0.2,0,0.3-0.1,0.3-0.3C170.3,99.8,170.2,99.7,170.1,99.7z M181.8,100
		c0-0.2-0.1-0.3-0.3-0.3h-2.3c-0.2,0-0.3,0.1-0.3,0.3c0,0.2,0.1,0.3,0.3,0.3h2.3C181.7,100.2,181.8,100.1,181.8,100z M84.1,99.7
		h-2.3c-0.2,0-0.3,0.1-0.3,0.3c0,0.2,0.1,0.3,0.3,0.3h2.3c0.2,0,0.3-0.1,0.3-0.3C84.4,99.8,84.3,99.7,84.1,99.7z M113,100
		c0-0.2-0.1-0.3-0.3-0.3h-2.3c-0.2,0-0.3,0.1-0.3,0.3c0,0.2,0.1,0.3,0.3,0.3h2.3C112.9,100.2,113,100.1,113,100z"/>
	<path d="M101.3,99.7H100v-0.8c0-0.2-0.3-0.3-0.4-0.2c-0.1,0.1-0.1,0.1-0.1,0.2v0.4l-0.1-0.1c-0.1-0.1-0.3-0.1-0.4,0
		c-0.1,0.1-0.1,0.3,0,0.4l0.1,0.1c-0.1,0-0.3,0.1-0.3,0.3c0,0.2,0.1,0.3,0.3,0.3h0.4v0.9c0,0.2,0.2,0.4,0.4,0.2
		c0.1-0.1,0.1-0.1,0.1-0.2v-0.5l0.5,0.5c0.1,0.1,0.3,0.1,0.4,0c0.1-0.1,0.1-0.3,0-0.4l-0.5-0.5h0.9c0.2,0,0.3-0.1,0.3-0.3
		C101.6,99.8,101.5,99.7,101.3,99.7z M104.7,100.2h2.3c0.2,0,0.3-0.1,0.3-0.3c0-0.2-0.1-0.3-0.3-0.3h-2.3c-0.2,0-0.3,0.1-0.3,0.3
		C104.4,100.1,104.6,100.2,104.7,100.2z M173.5,100.2h2.3c0.2,0,0.3-0.1,0.3-0.3c0-0.2-0.1-0.3-0.3-0.3h-2.3c-0.2,0-0.3,0.1-0.3,0.3
		C173.2,100.1,173.3,100.2,173.5,100.2z M147.1,99.7h-2.3c-0.2,0-0.4,0.2-0.2,0.4c0.1,0.1,0.1,0.1,0.2,0.1h2.3
		c0.2,0,0.4-0.2,0.2-0.4C147.3,99.7,147.2,99.7,147.1,99.7z M141.4,99.7h-2.3c-0.2,0-0.4,0.2-0.2,0.4c0.1,0.1,0.1,0.1,0.2,0.1h2.3
		c0.2,0,0.4-0.2,0.2-0.4C141.6,99.7,141.5,99.7,141.4,99.7z M153.2,100c0-0.2-0.1-0.3-0.3-0.3h-2.3c-0.2,0-0.4,0.2-0.2,0.4
		c0.1,0.1,0.1,0.1,0.2,0.1h2.3C153,100.2,153.2,100.1,153.2,100z M129.9,99.7h-2.3c-0.2,0-0.4,0.2-0.2,0.4c0.1,0.1,0.1,0.1,0.2,0.1
		h2.3c0.2,0,0.4-0.2,0.2-0.4C130.1,99.7,130,99.7,129.9,99.7z M124.5,100c0-0.2-0.1-0.3-0.3-0.3h-2.3c-0.2,0-0.4,0.2-0.2,0.4
		c0.1,0.1,0.1,0.1,0.2,0.1h2.3C124.4,100.2,124.5,100.1,124.5,100z M118.5,99.7h-2.3c-0.2,0-0.4,0.2-0.2,0.4
		c0.1,0.1,0.1,0.1,0.2,0.1h2.3c0.2,0,0.3-0.1,0.3-0.3C118.8,99.8,118.6,99.7,118.5,99.7z M66.9,99.7h-2.3c-0.2,0-0.4,0.2-0.2,0.4
		c0.1,0.1,0.1,0.1,0.2,0.1h2.3c0.2,0,0.4-0.2,0.2-0.4C67.1,99.7,67,99.7,66.9,99.7z M158.6,99.7h-2.3c-0.2,0-0.4,0.2-0.2,0.4
		c0.1,0.1,0.1,0.1,0.2,0.1h2.3c0.2,0,0.4-0.2,0.2-0.4C158.8,99.7,158.7,99.7,158.6,99.7z M136,100c0-0.2-0.1-0.3-0.3-0.3h-2.3
		c-0.2,0-0.4,0.2-0.2,0.4c0.1,0.1,0.1,0.1,0.2,0.1h2.3C135.8,100.2,136,100.1,136,100z M90.1,100c0-0.2-0.1-0.3-0.3-0.3h-2.3
		c-0.2,0-0.3,0.1-0.3,0.3c0,0.2,0.1,0.3,0.3,0.3h2.3C90,100.2,90.1,100.1,90.1,100z M72.9,100c0-0.2-0.1-0.3-0.3-0.3h-2.3
		c-0.2,0-0.4,0.2-0.2,0.4c0.1,0.1,0.1,0.1,0.2,0.1h2.3C72.8,100.2,72.9,100.1,72.9,100z M164.6,100c0-0.2-0.1-0.3-0.3-0.3H162
		c-0.2,0-0.3,0.1-0.3,0.3c0,0.2,0.1,0.3,0.3,0.3h2.3C164.5,100.2,164.6,100.1,164.6,100z M61.5,100c0-0.2-0.1-0.3-0.3-0.3h-2.3
		c-0.2,0-0.4,0.2-0.2,0.4c0.1,0.1,0.1,0.1,0.2,0.1h2.3C61.3,100.2,61.5,100.1,61.5,100z M55.5,99.7h-2.3c-0.2,0-0.4,0.2-0.2,0.4
		c0.1,0.1,0.1,0.1,0.2,0.1h2.3c0.2,0,0.4-0.2,0.2-0.4C55.6,99.7,55.6,99.7,55.5,99.7z M78.4,99.7h-2.3c-0.2,0-0.4,0.2-0.2,0.4
		c0.1,0.1,0.1,0.1,0.2,0.1h2.3c0.2,0,0.4-0.2,0.2-0.4C78.6,99.7,78.5,99.7,78.4,99.7z M95.6,99.7h-2.3c-0.2,0-0.3,0.1-0.3,0.3
		c0,0.2,0.1,0.3,0.3,0.3h2.3c0.2,0,0.3-0.1,0.3-0.3C95.9,99.8,95.7,99.7,95.6,99.7z M99.7,44.2c0.2,0,0.3-0.1,0.3-0.3v-2.3
		c0-0.2-0.1-0.3-0.3-0.3s-0.3,0.1-0.3,0.3v2.3C99.4,44,99.5,44.2,99.7,44.2z M99.7,55.6c0.2,0,0.3-0.1,0.3-0.3v-2.3
		c0-0.2-0.2-0.4-0.4-0.2c-0.1,0.1-0.1,0.1-0.1,0.2v2.3C99.4,55.5,99.5,55.6,99.7,55.6z M99.7,61.4c0.2,0,0.3-0.1,0.3-0.3v-2.3
		c0-0.2-0.3-0.3-0.4-0.2c-0.1,0.1-0.1,0.1-0.1,0.2v2.3C99.4,61.2,99.5,61.4,99.7,61.4z M99.7,67.1c0.2,0,0.3-0.1,0.3-0.3v-2.3
		c0-0.2-0.1-0.3-0.3-0.3s-0.3,0.1-0.3,0.3v2.3C99.4,67,99.5,67.1,99.7,67.1z M99.7,38.4c0.2,0,0.3-0.1,0.3-0.3v-2.3
		c0-0.2-0.3-0.3-0.4-0.2c-0.1,0.1-0.1,0.1-0.1,0.2v2.3C99.4,38.3,99.5,38.4,99.7,38.4z M99.7,72.8c0.2,0,0.3-0.1,0.3-0.3v-2.3
		c0-0.2-0.1-0.3-0.3-0.3s-0.3,0.1-0.3,0.3v2.3C99.4,72.7,99.5,72.8,99.7,72.8z M99.7,21.3c0.2,0,0.3-0.1,0.3-0.3v-2.3
		c0-0.2-0.1-0.3-0.3-0.3s-0.3,0.1-0.3,0.3V21C99.4,21.1,99.5,21.3,99.7,21.3z M99.7,49.9c0.2,0,0.3-0.1,0.3-0.3v-2.3
		c0-0.2-0.1-0.3-0.3-0.3s-0.3,0.1-0.3,0.3v2.3C99.4,49.8,99.5,49.9,99.7,49.9z M99.7,32.7c0.2,0,0.3-0.1,0.3-0.3v-2.3
		c0-0.2-0.2-0.4-0.4-0.2c-0.1,0.1-0.1,0.1-0.1,0.2v2.3C99.4,32.6,99.5,32.7,99.7,32.7z M99.7,27c0.2,0,0.3-0.1,0.3-0.3v-2.3
		c0-0.2-0.2-0.4-0.4-0.3c-0.1,0.1-0.2,0.2-0.1,0.3v2.3C99.4,26.9,99.5,27,99.7,27z M99.7,15.5c0.2,0,0.3-0.1,0.3-0.3v-0.5
		c0-0.2-0.3-0.3-0.4-0.2c-0.1,0.1-0.1,0.1-0.1,0.2v0.5C99.4,15.4,99.5,15.5,99.7,15.5z M99.7,133c-0.2,0-0.3,0.1-0.3,0.3v2.3
		c0,0.2,0.2,0.4,0.4,0.3c0.1-0.1,0.2-0.2,0.2-0.3v-2.3C100,133.1,99.8,133,99.7,133z M99.7,150.2c-0.2,0-0.3,0.1-0.3,0.3v2.3
		c0,0.2,0.2,0.4,0.4,0.2c0.1-0.1,0.1-0.1,0.1-0.2v-2.3C100,150.3,99.8,150.2,99.7,150.2z M99.7,127.3c-0.2,0-0.3,0.1-0.3,0.3v2.3
		c0,0.2,0.2,0.4,0.4,0.2c0.1-0.1,0.1-0.1,0.1-0.2v-2.3C100,127.4,99.8,127.3,99.7,127.3z M99.7,144.5c-0.2,0-0.3,0.1-0.3,0.3v2.3
		c0,0.2,0.2,0.4,0.4,0.2c0.1-0.1,0.1-0.1,0.1-0.2v-2.3C100,144.6,99.8,144.5,99.7,144.5z M99.7,138.7c-0.2,0-0.3,0.1-0.3,0.3v2.3
		c0,0.2,0.2,0.4,0.4,0.2c0.1-0.1,0.1-0.1,0.1-0.2V139C100,138.9,99.8,138.7,99.7,138.7z M99.7,121.5c-0.2,0-0.3,0.1-0.3,0.3v2.3
		c0,0.2,0.3,0.3,0.4,0.2c0.1-0.1,0.1-0.1,0.1-0.2v-2.3C100,121.7,99.8,121.5,99.7,121.5z M99.7,78.6c0.2,0,0.3-0.1,0.3-0.3V76
		c0-0.2-0.2-0.4-0.4-0.2c-0.1,0.1-0.1,0.1-0.1,0.2v2.3C99.4,78.4,99.5,78.6,99.7,78.6z M99.7,110.1c-0.2,0-0.3,0.1-0.3,0.3v2.3
		c0,0.2,0.2,0.4,0.4,0.3c0.1-0.1,0.2-0.2,0.2-0.3v-2.3C100,110.2,99.8,110.1,99.7,110.1z M99.7,115.8c-0.2,0-0.3,0.1-0.3,0.3v2.3
		c0,0.2,0.3,0.3,0.4,0.2c0.1-0.1,0.1-0.1,0.1-0.2v-2.3C100,115.9,99.8,115.8,99.7,115.8z M99.7,104.3c-0.2,0-0.3,0.1-0.3,0.3v2.3
		c0,0.2,0.2,0.4,0.4,0.2c0.1-0.1,0.1-0.1,0.1-0.2v-2.3C100,104.5,99.8,104.3,99.7,104.3z M99.7,90c0.2,0,0.3-0.1,0.3-0.3v-2.3
		c0-0.2-0.2-0.4-0.4-0.3c-0.1,0.1-0.2,0.2-0.2,0.3v2.3C99.4,89.9,99.5,90,99.7,90z M99.7,95.7c0.2,0,0.3-0.1,0.3-0.3v-2.3
		c0-0.2-0.2-0.4-0.4-0.2c-0.1,0.1-0.1,0.1-0.1,0.2v2.3C99.4,95.6,99.5,95.7,99.7,95.7z M99.7,178.8c-0.2,0-0.3,0.1-0.3,0.3v2.3
		c0,0.2,0.2,0.4,0.4,0.3c0.1-0.1,0.2-0.2,0.2-0.3v-2.3C100,179,99.8,178.8,99.7,178.8z M99.7,84.3c0.2,0,0.3-0.1,0.3-0.3v-2.3
		c0-0.2-0.3-0.3-0.4-0.2c-0.1,0.1-0.1,0.1-0.1,0.2V84C99.4,84.2,99.5,84.3,99.7,84.3z M99.7,167.4c-0.2,0-0.3,0.1-0.3,0.3v2.3
		c0,0.2,0.3,0.3,0.4,0.2c0.1-0.1,0.1-0.1,0.1-0.2v-2.3C100,167.5,99.8,167.4,99.7,167.4z M99.7,161.6c-0.2,0-0.3,0.1-0.3,0.3v2.3
		c0,0.2,0.3,0.3,0.4,0.2c0.1-0.1,0.1-0.1,0.1-0.2v-2.3C100,161.8,99.8,161.6,99.7,161.6z M99.7,155.9c-0.2,0-0.3,0.1-0.3,0.3v2.3
		c0,0.2,0.2,0.4,0.4,0.3c0.1-0.1,0.2-0.2,0.2-0.3v-2.3C100,156,99.8,155.9,99.7,155.9z M99.7,173.1c-0.2,0-0.3,0.1-0.3,0.3v2.3
		c0,0.2,0.2,0.4,0.4,0.2c0.1-0.1,0.1-0.1,0.1-0.2v-2.3C100,173.2,99.8,173.1,99.7,173.1z"/>
</g>
<text transform="matrix(1 0 0 1 31.3887 146.0498)" class="st0 st1 st2">青</text>
</svg>
